<svg xmlns="http://www.w3.org/2000/svg" width="22" height="22" viewBox="0 0 22 22" fill="none">
  <path d="M1.25 11.75L3.25 12.75" stroke="#fff" stroke-width="1.5" stroke-linecap="round" stroke-linejoin="round"/>
  <path d="M20.25 12.25L18.25 12.75" stroke="#fff" stroke-width="1.5" stroke-linecap="round" stroke-linejoin="round"/>
  <path d="M6.75 17.25L6.99567 16.6358C7.36101 15.7225 7.54368 15.2658 7.92461 15.0079C8.30553 14.75 8.79739 14.75 9.7811 14.75H11.7189C12.7026 14.75 13.1945 14.75 13.5754 15.0079C13.9563 15.2658 14.139 15.7225 14.5043 16.6358L14.75 17.25" stroke="#fff" stroke-width="1.5" stroke-linecap="round" stroke-linejoin="round"/>
  <path d="M0.75 16.75V19.632C0.75 20.0107 0.990753 20.357 1.37188 20.5264C1.61918 20.6363 1.85538 20.75 2.14058 20.75H3.85942C4.14462 20.75 4.38082 20.6363 4.62812 20.5264C5.00925 20.357 5.25 20.0107 5.25 19.632V17.75" stroke="#fff" stroke-width="1.5" stroke-linecap="round" stroke-linejoin="round"/>
  <path d="M16.25 17.75V19.632C16.25 20.0107 16.4908 20.357 16.8719 20.5264C17.1192 20.6363 17.3554 20.75 17.6406 20.75H19.3594C19.6446 20.75 19.8808 20.6363 20.1281 20.5264C20.5092 20.357 20.75 20.0107 20.75 19.632V16.75" stroke="#fff" stroke-width="1.5" stroke-linecap="round" stroke-linejoin="round"/>
  <path d="M18.75 8.25L19.75 7.75" stroke="#fff" stroke-width="1.5" stroke-linecap="round" stroke-linejoin="round"/>
  <path d="M2.75 8.25L1.75 7.75" stroke="#fff" stroke-width="1.5" stroke-linecap="round" stroke-linejoin="round"/>
  <path d="M3.25 9.25L4.3383 5.98509C4.77832 4.66505 4.99832 4.00503 5.5221 3.62752C6.04587 3.25 6.74159 3.25 8.13304 3.25H13.367C14.7584 3.25 15.4541 3.25 15.9779 3.62752C16.5017 4.00503 16.7217 4.66505 17.1617 5.98509L18.25 9.25" stroke="#fff" stroke-width="1.5" stroke-linejoin="round"/>
  <path d="M14.25 3.25C14.0098 2.04343 13.8897 1.44013 13.6038 1.09507C13.3179 0.75 12.9381 0.75 12.1785 0.75H9.32146C8.5619 0.75 8.18212 0.75 7.89621 1.09507C7.61029 1.44013 7.49019 2.04342 7.25 3.25" stroke="#fff" stroke-width="1.5" stroke-linejoin="round"/>
  <path d="M3.25 9.25H18.25C19.2072 10.2072 20.75 11.5402 20.75 13.0274V16.3052C20.75 16.844 20.3705 17.2974 19.8668 17.3604L16.75 17.75H4.75L1.63316 17.3604C1.12955 17.2974 0.75 16.844 0.75 16.3052V13.0274C0.75 11.5402 2.29279 10.2072 3.25 9.25Z" stroke="#fff" stroke-width="1.5" stroke-linejoin="round"/>
</svg>